<svg xmlns="http://www.w3.org/2000/svg" width="501.83" height="144.88" viewBox="0 0 501.83 144.88">
  <defs>
    <style>
      .cls-1 {
        fill: #fff;
      }
    </style>
  </defs>
  <title>logo_full</title>
  <g id="Layer_2" data-name="Layer 2">
    <g id="Layer_1-2" data-name="Layer 1">
      <circle cx="71.83" cy="73.06" r="71.83"/>
      <g>
        <g>
          <path class="cls-1" d="M56.9,66.15a.71.71,0,0,0-.65-.72.73.73,0,0,0,0,1.45A.69.69,0,0,0,56.9,66.15Z"/>
          <path class="cls-1" d="M47.64,63.65h3.72a.53.53,0,0,0,.43-.2l3.41-3.93a.64.64,0,0,1,.52-.24h2.85a.29.29,0,0,0,.31-.22,1.49,1.49,0,0,1,1.82-1A1.79,1.79,0,0,1,61.81,60a1.65,1.65,0,0,1-1.44,1.57,1.53,1.53,0,0,1-1.49-1,.3.3,0,0,0-.32-.23H56a.47.47,0,0,0-.37.18c-1.11,1.29-2.22,2.56-3.32,3.85a.83.83,0,0,1-.68.33H44.23c0,.33,0,.65.05,1H54.52a.35.35,0,0,0,.36-.25,1.44,1.44,0,0,1,1.49-1,1.49,1.49,0,0,1,1.33,1.14,1.84,1.84,0,0,1-.36,1.87,1.73,1.73,0,0,0-.14.2c.34,0,.7.14,1-.09l4.93-3.44a.31.31,0,0,0,.15-.37,1.75,1.75,0,0,1,1.28-2,1.57,1.57,0,0,1,1.76,1.44,1.76,1.76,0,0,1-1.2,2A1.3,1.3,0,0,1,64,65a.25.25,0,0,0-.36,0l-5,3.51a1.18,1.18,0,0,1-.69.22H44.87a13,13,0,0,0,.47,1.23H64.63a.37.37,0,0,0,.4-.28,1.47,1.47,0,0,1,1.73-.94A1.7,1.7,0,0,1,67.9,70h4.23a18.46,18.46,0,0,0,0-8.81c-1.14-4.8-5-10.36-14-10.36a13.68,13.68,0,0,0-13.9,12.84Z"/>
          <path class="cls-1" d="M55.3,67.63c-.17-.3-.32-.58-.49-.85a.2.2,0,0,0-.14-.1,3.85,3.85,0,0,0-.48,0h-9.8c0,.32.11.65.19,1H55.3Z"/>
          <path class="cls-1" d="M56.42,74.13a.79.79,0,0,1,.54.2q2.82,2.42,5.65,4.82a.58.58,0,0,0,.35.13h9.88a12.41,12.41,0,0,0-.82-2.7H65a.75.75,0,0,1-.62-.29c-.9-1-1.82-2.08-2.72-3.13a.54.54,0,0,0-.45-.2H47.35a12,12,0,0,0,1.21,1.15h7.86Z"/>
          <path class="cls-1" d="M66.39,71.15a.6.6,0,0,0,.5-.26c-.35-.21-.72-.4-1.1-.58a.28.28,0,0,0,0,.09A.69.69,0,0,0,66.39,71.15Z"/>
          <path class="cls-1" d="M64.61,70.94H45.87a11.61,11.61,0,0,0,.65,1h15a.7.7,0,0,1,.6.27c.89,1,1.8,2,2.69,3.08a.62.62,0,0,0,.5.25h6.2a12.35,12.35,0,0,0-3.82-4.15,1.57,1.57,0,0,1-.92.74A1.46,1.46,0,0,1,65,71.23.39.39,0,0,0,64.61,70.94Z"/>
          <path class="cls-1" d="M66.42,69.7a.62.62,0,0,0-.51.28h1A.61.61,0,0,0,66.42,69.7Z"/>
          <path class="cls-1" d="M66.21,86.86a.69.69,0,0,0-.62-.72.72.72,0,1,0,.62.72Z"/>
          <path class="cls-1" d="M65.48,63.46a.71.71,0,0,0-.66-.72.69.69,0,0,0-.62.75.68.68,0,0,0,.64.7A.71.71,0,0,0,65.48,63.46Z"/>
          <path class="cls-1" d="M69.32,83.81a.63.63,0,1,0-.63.71A.66.66,0,0,0,69.32,83.81Z"/>
          <path class="cls-1" d="M57.45,79.91a.63.63,0,1,0-.62.71A.66.66,0,0,0,57.45,79.91Z"/>
          <path class="cls-1" d="M62.84,80.32a1,1,0,0,1-.72-.27l-5.5-4.7a.68.68,0,0,0-.47-.17h-13c0,.22-.11.59-.18,1.06H53.29a.69.69,0,0,1,.51.2c.66.64,1.34,1.26,2,1.9a.18.18,0,0,0,.27,0,1.4,1.4,0,0,1,1.82.27,2,2,0,0,1,.32,2.06,1.53,1.53,0,0,1-1.58,1,1.64,1.64,0,0,1-1.33-1.47,3.06,3.06,0,0,1,0-.74c0-.13,0-.21-.08-.29-.64-.59-1.27-1.2-1.92-1.78a.54.54,0,0,0-.35-.11H42.81c0,.27-.05.56-.07.87H50a.79.79,0,0,1,.54.2q2.81,2.4,5.62,4.79a.65.65,0,0,0,.37.14H67A.3.3,0,0,0,67.3,83a1.48,1.48,0,0,1,1.78-1,1.84,1.84,0,0,1,0,3.44,1.48,1.48,0,0,1-1.75-1,.28.28,0,0,0-.32-.2H56.37a.83.83,0,0,1-.61-.23l-5.63-4.81c-.21-.17-.41-.07-.63-.08a1.81,1.81,0,0,1,.85.93,1.89,1.89,0,0,1-.73,2.34,1.45,1.45,0,0,1-2-.81.35.35,0,0,0-.38-.26c-1,0-2,0-3,0H42.79l0,.35c0,.21,0,.42.08.63s.05.37.08.55H51.3a.74.74,0,0,1,.52.18l3.86,3.06a.56.56,0,0,0,.35.13h7.84a.28.28,0,0,0,.31-.22,1.48,1.48,0,0,1,1.74-1,1.84,1.84,0,0,1,0,3.45,1.47,1.47,0,0,1-1.76-1,.32.32,0,0,0-.36-.25H55.89a.94.94,0,0,1-.61-.22l-3.82-3a.71.71,0,0,0-.39-.14H43.19a13.19,13.19,0,0,0,4.3,7.28l0,0a16,16,0,0,0,11.2,4c9.27,0,14.37-6.8,14.37-13.49A14.72,14.72,0,0,0,73,80.32Z"/>
          <path class="cls-1" d="M60.91,59.79a.64.64,0,1,0-1.27,0,.64.64,0,1,0,1.27,0Z"/>
          <path class="cls-1" d="M47.92,79.19H42.7c0,.38,0,.76,0,1.17H45.5c.59,0,1.17,0,1.76,0a.26.26,0,0,0,.28-.2,1.8,1.8,0,0,1,.85-1h-.47Z"/>
          <path class="cls-1" d="M49,81.6a.72.72,0,1,0-.63-.7A.67.67,0,0,0,49,81.6Z"/>
        </g>
        <path class="cls-1" d="M9.32,68.8l29.78-18V61.89l-19.54,11L39.1,84.06V95.3L9.32,77.47Z"/>
        <path class="cls-1" d="M134.33,77.39,104.56,95.3v-11l19.53-11.08L104.56,62.05V50.81l29.77,17.91Z"/>
        <path class="cls-1" d="M84.34,94.64h-9L93.05,50.81h9.07Z"/>
      </g>
      <g>
        <path d="M191.35,3.73h-3.11v19.1h3v2.35h-8.46V22.83h2.78V7.68h-.14l-8,16.29H176l-8.16-16.4h-.14V22.83h2.85v2.35h-8.41V22.83h3V3.73H162V1.39h5.45L176.72,20h.14l9-18.63h5.49Z"/>
        <path d="M195.41,10.14a9,9,0,0,1,2.71-1.21,12,12,0,0,1,3-.37Q207,8.56,207,14v7.76c0,1.17.46,1.76,1.39,1.76a2.57,2.57,0,0,0,1.1-.22l0,1.68a4.24,4.24,0,0,1-2.12.55q-2.9,0-3-3.29v-.08a7.91,7.91,0,0,1-2.18,2.35,5.63,5.63,0,0,1-3.39,1,6.38,6.38,0,0,1-3.27-1A3.81,3.81,0,0,1,193.91,21q0-3.07,2.44-4a14,14,0,0,1,5.18-1c.48,0,1,0,1.48,0s1,.06,1.41.11V14.64a5,5,0,0,0-.75-2.86c-.5-.73-1.49-1.1-2.95-1.1a7.12,7.12,0,0,0-3.15.66L197,14.16l-2.12-.25Zm9,8.92V17.82c-.47,0-1-.06-1.47-.11s-1-.07-1.57-.07a9.38,9.38,0,0,0-3.31.56,2.36,2.36,0,0,0-1.48,2.47,2.31,2.31,0,0,0,1,2.16,4,4,0,0,0,2.05.59,5,5,0,0,0,3.17-1.17A4.26,4.26,0,0,0,204.42,19.06Z"/>
        <path d="M219.13,25.18h-8.27V23.09h2.85v-21h-2.89V0h5.45V23.09h2.86Z"/>
        <path d="M222.82,10.14a8.88,8.88,0,0,1,2.71-1.21,11.89,11.89,0,0,1,3-.37q5.81,0,5.81,5.45v7.76c0,1.17.47,1.76,1.39,1.76a2.54,2.54,0,0,0,1.1-.22l0,1.68a4.27,4.27,0,0,1-2.12.55q-2.89,0-3-3.29v-.08a7.87,7.87,0,0,1-2.17,2.35,5.63,5.63,0,0,1-3.39,1,6.38,6.38,0,0,1-3.27-1A3.81,3.81,0,0,1,221.32,21q0-3.07,2.43-4a14,14,0,0,1,5.18-1c.49,0,1,0,1.48,0s1,.06,1.41.11V14.64a5,5,0,0,0-.75-2.86c-.5-.73-1.48-1.1-2.94-1.1a7.09,7.09,0,0,0-3.15.66l-.62,2.82-2.12-.25Zm9,8.92V17.82c-.46,0-.95-.06-1.46-.11s-1-.07-1.57-.07a9.44,9.44,0,0,0-3.32.56A2.37,2.37,0,0,0,224,20.67a2.3,2.3,0,0,0,1,2.16,4,4,0,0,0,2.05.59,5,5,0,0,0,3.16-1.17A4.26,4.26,0,0,0,231.82,19.06Z"/>
        <path d="M255.13,11h-1.94l-5.74,14.2-2.2,5.7H248V33h-8.27V30.88h3l2.12-5.74L239,11h-1.93V8.89h7.53V11h-2.85l4.57,10.94h.22L250.59,11H248V8.89h7.17Z"/>
        <path d="M258.42,10.14a9,9,0,0,1,2.71-1.21,12,12,0,0,1,3-.37Q270,8.56,270,14v7.76c0,1.17.46,1.76,1.39,1.76a2.57,2.57,0,0,0,1.1-.22l0,1.68a4.24,4.24,0,0,1-2.12.55q-2.89,0-3-3.29v-.08a7.91,7.91,0,0,1-2.18,2.35,5.63,5.63,0,0,1-3.39,1,6.38,6.38,0,0,1-3.27-1A3.81,3.81,0,0,1,256.92,21q0-3.07,2.44-4a14,14,0,0,1,5.18-1c.48,0,1,0,1.48,0s1,.06,1.41.11V14.64a5,5,0,0,0-.75-2.86c-.5-.73-1.49-1.1-2.95-1.1a7.12,7.12,0,0,0-3.15.66L260,14.16l-2.12-.25Zm9,8.92V17.82c-.47,0-1-.06-1.47-.11s-1-.07-1.57-.07a9.38,9.38,0,0,0-3.31.56,2.36,2.36,0,0,0-1.48,2.47,2.31,2.31,0,0,0,1,2.16,4,4,0,0,0,2.05.59,5,5,0,0,0,3.17-1.17A4.26,4.26,0,0,0,267.43,19.06Z"/>
        <path d="M293.77,25.18h-8.23V23.09h2.82V15.52a5.27,5.27,0,0,0-1.06-3.72,3.64,3.64,0,0,0-2.71-1.08,4.55,4.55,0,0,0-3.53,1.45,5,5,0,0,0-1.41,3.31v7.61h2.85v2.09h-8.27V23.09h2.86V11h-2.93V8.89h5.49v2.89a6,6,0,0,1,5.71-3.22,5.68,5.68,0,0,1,4,1.47c1.08,1,1.61,2.55,1.61,4.72v8.34h2.82Z"/>
        <path d="M320.34,18.52a6.08,6.08,0,0,1-2.44,5.23,10,10,0,0,1-6,1.79c-3.32,0-5.87-.64-7.65-1.94l.51-4.68,2.2.22-.15,3a9,9,0,0,0,2.42.84,13.66,13.66,0,0,0,2.52.22,7.79,7.79,0,0,0,4-1,3.64,3.64,0,0,0,1.71-3.42c0-1.8-.63-3-1.87-3.53a22.73,22.73,0,0,0-4.06-1.33,30.59,30.59,0,0,1-3.33-.94,6.46,6.46,0,0,1-2.75-1.79,5.2,5.2,0,0,1-1.09-3.57,5.69,5.69,0,0,1,2.25-5A8.86,8.86,0,0,1,311.92,1a15.34,15.34,0,0,1,4,.55A9.07,9.07,0,0,1,319.06,3l.22,4.72-2.2.22-.37-3.55a8.05,8.05,0,0,0-2.3-.79,13.67,13.67,0,0,0-2.23-.2,6,6,0,0,0-3.61,1,3.39,3.39,0,0,0-1.37,2.91,3,3,0,0,0,1.65,3,18.49,18.49,0,0,0,3.66,1.24c1.07.25,2.21.56,3.42.94A7,7,0,0,1,319,14.44,5.74,5.74,0,0,1,320.34,18.52Z"/>
        <path d="M335.3,20.78c-.44,3.18-2.16,4.76-5.16,4.76a4.88,4.88,0,0,1-3.75-1.39,5.33,5.33,0,0,1-1.3-3.77V10.94h-2.63v-2h2.63V3.66h2.57V8.89H334v2h-6.36v9.11a4,4,0,0,0,.63,2.36,2.41,2.41,0,0,0,2.11.9,3,3,0,0,0,1.77-.59,3.94,3.94,0,0,0,1.19-2.56Z"/>
        <path d="M355.46,25.18H350V22.1a6.22,6.22,0,0,1-5.68,3.44,5.71,5.71,0,0,1-4-1.48q-1.64-1.48-1.63-4.74V11h-2.86V8.89h5.42v9.7a5,5,0,0,0,1.1,3.69,3.87,3.87,0,0,0,2.81,1.07,4.29,4.29,0,0,0,3.43-1.58A5.46,5.46,0,0,0,350,18.44V11h-3.41V8.89h6v14.2h2.92Z"/>
        <path d="M375.59,25.18h-5.38v-3.3a8.36,8.36,0,0,1-2.2,2.56,5.6,5.6,0,0,1-3.62,1.1,6.49,6.49,0,0,1-5.07-2.14,8.6,8.6,0,0,1-1.92-5.95,11.56,11.56,0,0,1,1.69-6.07q1.68-2.82,5.67-2.82a5.74,5.74,0,0,1,5.45,3V2.09h-3.95V0h6.51V23.09h2.82ZM370.21,18v-2.6a4.49,4.49,0,0,0-1.5-3.33,4.84,4.84,0,0,0-3.37-1.28,4.39,4.39,0,0,0-4,2,8.27,8.27,0,0,0-1.26,4.54,6.52,6.52,0,0,0,1.41,4.54,4.61,4.61,0,0,0,3.53,1.54,4.5,4.5,0,0,0,3.64-1.78A6,6,0,0,0,370.21,18Z"/>
        <path d="M392,20.49a5.77,5.77,0,0,1-2.09,3.57,7.11,7.11,0,0,1-4.75,1.48,7.47,7.47,0,0,1-5.57-2.16,8.36,8.36,0,0,1-2.12-6.11,9.58,9.58,0,0,1,2-6.26A6.71,6.71,0,0,1,385,8.56a6.28,6.28,0,0,1,5.12,2.12,7.78,7.78,0,0,1,1.79,5,8.75,8.75,0,0,1-.22,1.94H380.2c.15,3.8,1.87,5.71,5.16,5.71a4.64,4.64,0,0,0,3-.92A4.38,4.38,0,0,0,389.86,20Zm-2.86-4.76a5.16,5.16,0,0,0-.86-3.44,4.43,4.43,0,0,0-6.75-.1,7.75,7.75,0,0,0-1.31,3.54Z"/>
        <path d="M413.94,25.18H405.7V23.09h2.82V15.52a5.22,5.22,0,0,0-1.06-3.72,3.64,3.64,0,0,0-2.71-1.08,4.56,4.56,0,0,0-3.53,1.45,5,5,0,0,0-1.41,3.31v7.61h2.86v2.09H394.4V23.09h2.85V11h-2.93V8.89h5.49v2.89a6,6,0,0,1,5.71-3.22,5.7,5.7,0,0,1,4,1.47c1.07,1,1.61,2.55,1.61,4.72v8.34h2.82Z"/>
        <path d="M427.66,20.78c-.44,3.18-2.16,4.76-5.16,4.76a4.85,4.85,0,0,1-3.75-1.39,5.28,5.28,0,0,1-1.3-3.77V10.94h-2.64v-2h2.64V3.66H420V8.89h6.37v2H420v9.11a3.93,3.93,0,0,0,.64,2.36,2.41,2.41,0,0,0,2.11.9,3,3,0,0,0,1.77-.59,4,4,0,0,0,1.19-2.56Z"/>
        <path d="M442.44,20.46a4.28,4.28,0,0,1-2,3.73,8.58,8.58,0,0,1-4.92,1.35,13,13,0,0,1-3.43-.46,9.36,9.36,0,0,1-2.76-1.15l.51-3.69,2,.22-.11,2.15a8.28,8.28,0,0,0,3.63.81,6.68,6.68,0,0,0,3.05-.68,2.2,2.2,0,0,0,1.34-2.07,2,2,0,0,0-1-1.9,8.44,8.44,0,0,0-2.54-.8c-1-.17-2-.38-3.06-.62a5.94,5.94,0,0,1-2.56-1.27,3.54,3.54,0,0,1-1-2.8,3.84,3.84,0,0,1,1.9-3.66,8.44,8.44,0,0,1,4.13-1.06A11.19,11.19,0,0,1,438.8,9a10.89,10.89,0,0,1,2.51,1.06l.4,3.81-2.12.25-.41-2.63a7,7,0,0,0-3.33-.81,4.89,4.89,0,0,0-2.52.59,2,2,0,0,0-1,1.83,1.86,1.86,0,0,0,1,1.81,8.14,8.14,0,0,0,2.52.77q1.5.24,3,.6a5.81,5.81,0,0,1,2.53,1.3A3.71,3.71,0,0,1,442.44,20.46Z"/>
        <path d="M170.06,36.23a8.42,8.42,0,0,1,2,.22,4.18,4.18,0,0,1,1.74.95l.62,3.77-2.09.25-.69-2.78a5.21,5.21,0,0,0-1.87-.29q-2.9,0-2.89,3.88v3.25h4.21v2.05h-4.21V59.68h3.7v2.09h-9.12V59.68h2.82V47.53H162V45.48h2.34v-3a6.1,6.1,0,0,1,1.7-4.54A5.58,5.58,0,0,1,170.06,36.23Z"/>
        <path d="M189.38,53.61a8.72,8.72,0,0,1-2.2,6.11,7.65,7.65,0,0,1-6,2.41,7.39,7.39,0,0,1-5.8-2.34,8.65,8.65,0,0,1-2.11-6,9.46,9.46,0,0,1,2.05-6.09,8.4,8.4,0,0,1,12,0A9.25,9.25,0,0,1,189.38,53.61Zm-2.71,0a7,7,0,0,0-1.41-4.52,4.82,4.82,0,0,0-4-1.74,4.63,4.63,0,0,0-3.93,1.8,7.14,7.14,0,0,0-1.38,4.5,7.38,7.38,0,0,0,1.36,4.5,4.61,4.61,0,0,0,3.95,1.83,4.76,4.76,0,0,0,4-1.81A7.26,7.26,0,0,0,186.67,53.57Z"/>
        <path d="M201.12,45.19a4.25,4.25,0,0,1,2.78.84l.63,4.1-2.09.26-.62-2.78a3.66,3.66,0,0,0-1.25-.22,2.89,2.89,0,0,0-2.37,1.19,4.76,4.76,0,0,0-1,3.09v8H201v2.09h-9.18V59.68h2.85V47.57h-2.93V45.48h5.35v2.93a5.28,5.28,0,0,1,1.55-2.29A3.69,3.69,0,0,1,201.12,45.19Z"/>
        <path d="M234.86,59.94q-2.85,2.19-7.94,2.19a11,11,0,0,1-8.42-3.45A12.25,12.25,0,0,1,215.28,50a13.85,13.85,0,0,1,1.39-6.13,11.56,11.56,0,0,1,3.92-4.55,10.36,10.36,0,0,1,6-1.72,13.71,13.71,0,0,1,5,.77,11.87,11.87,0,0,1,3.46,2l.65,4.57-2.3.22-.66-3.48a10.87,10.87,0,0,0-2.52-1.22,10.55,10.55,0,0,0-3.37-.46,7.94,7.94,0,0,0-6.31,2.78,10.49,10.49,0,0,0-2.4,7.1A10.1,10.1,0,0,0,220.57,57a8.69,8.69,0,0,0,6.72,2.69,11.61,11.61,0,0,0,5.23-1.06l.69-3.52,2.27.22Z"/>
        <path d="M247.85,45.19a4.25,4.25,0,0,1,2.78.84l.62,4.1-2.08.26-.62-2.78a3.66,3.66,0,0,0-1.25-.22,2.92,2.92,0,0,0-2.38,1.19,4.81,4.81,0,0,0-.95,3.09v8h3.77v2.09h-9.18V59.68h2.85V47.57h-2.93V45.48h5.35v2.93a5.28,5.28,0,0,1,1.55-2.29A3.67,3.67,0,0,1,247.85,45.19Z"/>
        <path d="M268.74,57.08a5.76,5.76,0,0,1-2.08,3.57,7.14,7.14,0,0,1-4.76,1.48A7.44,7.44,0,0,1,256.34,60a8.3,8.3,0,0,1-2.12-6.11,9.53,9.53,0,0,1,2-6.25,6.67,6.67,0,0,1,5.45-2.46,6.24,6.24,0,0,1,5.12,2.13,7.74,7.74,0,0,1,1.8,5,9.38,9.38,0,0,1-.22,1.94H256.93c.14,3.8,1.86,5.71,5.15,5.71a4.6,4.6,0,0,0,3-.92,4.38,4.38,0,0,0,1.46-2.41Zm-2.85-4.75a5.19,5.19,0,0,0-.86-3.44,3.76,3.76,0,0,0-3.42-1.61,3.8,3.8,0,0,0-3.33,1.5A7.64,7.64,0,0,0,257,52.33Z"/>
        <path d="M273,46.73a8.77,8.77,0,0,1,2.71-1.21,12.33,12.33,0,0,1,3-.37q5.82,0,5.82,5.46v7.75c0,1.18.46,1.76,1.39,1.76a2.54,2.54,0,0,0,1.1-.22l0,1.68a4.28,4.28,0,0,1-2.13.55c-1.92,0-2.91-1.09-3-3.29v-.07a7.64,7.64,0,0,1-2.18,2.34,5.6,5.6,0,0,1-3.38,1,6.38,6.38,0,0,1-3.28-1,3.8,3.8,0,0,1-1.66-3.58q0-3.08,2.43-4a13.79,13.79,0,0,1,5.18-1l1.48,0c.5,0,1,.06,1.41.11V51.23a5,5,0,0,0-.75-2.85c-.5-.74-1.48-1.1-2.95-1.1a7.08,7.08,0,0,0-3.14.66l-.63,2.81-2.12-.25Zm9,8.93V54.41c-.46,0-.95-.06-1.46-.11s-1-.07-1.58-.07a9.16,9.16,0,0,0-3.31.57,2.35,2.35,0,0,0-1.48,2.47,2.3,2.3,0,0,0,1,2.16,4,4,0,0,0,2.05.58,5,5,0,0,0,3.16-1.17A4.26,4.26,0,0,0,282,55.66Z"/>
        <path d="M301.09,57.38q-.66,4.75-5.16,4.75a4.88,4.88,0,0,1-3.75-1.39,5.27,5.27,0,0,1-1.3-3.77V47.53h-2.63V45.48h2.63V40.25h2.56v5.23h6.37v2.05h-6.37v9.11a4,4,0,0,0,.64,2.36,2.41,2.41,0,0,0,2.11.9,3,3,0,0,0,1.77-.58,4,4,0,0,0,1.19-2.57Z"/>
        <path d="M310.79,61.77h-8.27V59.68h2.85V47.57h-2.93V45.48h5.49v14.2h2.86Zm-5.68-20.49V38h2.79v3.33Z"/>
        <path d="M329.34,47.57h-2l-6,14.2h-2l-6.22-14.2h-1.9V45.48h7.5v2.09H316l4.54,10.72h.22l4.06-10.72h-2.6V45.48h7.14Z"/>
        <path d="M345,57.08a5.76,5.76,0,0,1-2.08,3.57,7.14,7.14,0,0,1-4.76,1.48A7.44,7.44,0,0,1,332.56,60a8.3,8.3,0,0,1-2.12-6.11,9.53,9.53,0,0,1,2-6.25,6.67,6.67,0,0,1,5.45-2.46A6.24,6.24,0,0,1,343,47.28a7.74,7.74,0,0,1,1.8,5,9.38,9.38,0,0,1-.22,1.94H333.14c.15,3.8,1.87,5.71,5.16,5.71a4.6,4.6,0,0,0,3-.92,4.45,4.45,0,0,0,1.47-2.41Zm-2.85-4.75a5.19,5.19,0,0,0-.86-3.44,3.76,3.76,0,0,0-3.42-1.61,3.8,3.8,0,0,0-3.33,1.5,7.64,7.64,0,0,0-1.32,3.55Z"/>
        <path d="M376.76,61.77H372l-5.13-10H361.8v7.62H365v2.34h-8.89V59.43h3V40.32h-3V38h10.28q4.42,0,6.33,1.92a6.57,6.57,0,0,1,1.9,4.82,6.91,6.91,0,0,1-1.28,4.11,6.43,6.43,0,0,1-3.8,2.47l4.24,8.13h3Zm-5-16.94a4.13,4.13,0,0,0-1.36-3.43A7.05,7.05,0,0,0,366,40.32H361.8v9.26h4.31c2,0,3.48-.42,4.36-1.26A4.61,4.61,0,0,0,371.79,44.83Z"/>
        <path d="M392.61,57.08a5.77,5.77,0,0,1-2.09,3.57,7.14,7.14,0,0,1-4.76,1.48A7.46,7.46,0,0,1,380.2,60a8.34,8.34,0,0,1-2.12-6.11,9.53,9.53,0,0,1,2-6.25,6.67,6.67,0,0,1,5.45-2.46,6.26,6.26,0,0,1,5.13,2.13,7.73,7.73,0,0,1,1.79,5,8.75,8.75,0,0,1-.22,1.94H380.79c.14,3.8,1.86,5.71,5.16,5.71a4.59,4.59,0,0,0,3-.92,4.39,4.39,0,0,0,1.47-2.41Zm-2.86-4.75a5.19,5.19,0,0,0-.86-3.44,3.74,3.74,0,0,0-3.42-1.61,3.8,3.8,0,0,0-3.33,1.5,7.64,7.64,0,0,0-1.32,3.55Z"/>
        <path d="M408.49,57.05a4.28,4.28,0,0,1-2,3.73,8.58,8.58,0,0,1-4.92,1.35,13.28,13.28,0,0,1-3.42-.45,9.39,9.39,0,0,1-2.76-1.16l.51-3.69,2.05.22-.11,2.16a8.37,8.37,0,0,0,3.62.8,6.57,6.57,0,0,0,3.06-.68,2.19,2.19,0,0,0,1.33-2.06,2,2,0,0,0-1-1.91,8.51,8.51,0,0,0-2.55-.8c-1-.17-2-.38-3-.62a5.88,5.88,0,0,1-2.56-1.27,3.5,3.5,0,0,1-1-2.8,3.82,3.82,0,0,1,1.91-3.65,8.28,8.28,0,0,1,4.13-1.07,11.24,11.24,0,0,1,3.17.44,10.79,10.79,0,0,1,2.5,1.07l.4,3.8-2.12.26-.4-2.64a7.12,7.12,0,0,0-3.33-.8,4.87,4.87,0,0,0-2.52.58,2,2,0,0,0-1,1.83,1.86,1.86,0,0,0,1,1.81,8.29,8.29,0,0,0,2.53.77c1,.16,2,.36,3,.61a5.6,5.6,0,0,1,2.52,1.29A3.73,3.73,0,0,1,408.49,57.05Z"/>
        <path d="M425.83,57.08a5.76,5.76,0,0,1-2.08,3.57A7.15,7.15,0,0,1,419,62.13,7.44,7.44,0,0,1,413.43,60a8.31,8.31,0,0,1-2.13-6.11,9.48,9.48,0,0,1,2-6.25,6.67,6.67,0,0,1,5.45-2.46,6.26,6.26,0,0,1,5.12,2.13,7.8,7.8,0,0,1,1.8,5,9.38,9.38,0,0,1-.22,1.94H414c.15,3.8,1.87,5.71,5.16,5.71a4.62,4.62,0,0,0,3-.92,4.38,4.38,0,0,0,1.46-2.41ZM423,52.33a5.25,5.25,0,0,0-.86-3.44,4.44,4.44,0,0,0-6.75-.11,7.64,7.64,0,0,0-1.32,3.55Z"/>
        <path d="M430.07,46.73a9,9,0,0,1,2.71-1.21,12.41,12.41,0,0,1,3-.37q5.82,0,5.82,5.46v7.75c0,1.18.46,1.76,1.39,1.76a2.57,2.57,0,0,0,1.1-.22l0,1.68a4.24,4.24,0,0,1-2.12.55c-1.93,0-2.91-1.09-3-3.29v-.07a7.76,7.76,0,0,1-2.18,2.34,5.63,5.63,0,0,1-3.39,1,6.38,6.38,0,0,1-3.27-1,3.8,3.8,0,0,1-1.66-3.58q0-3.08,2.43-4a13.79,13.79,0,0,1,5.18-1l1.48,0c.5,0,1,.06,1.41.11V51.23a5,5,0,0,0-.75-2.85c-.5-.74-1.49-1.1-2.95-1.1a7.15,7.15,0,0,0-3.15.66l-.62,2.81-2.12-.25Zm9,8.93V54.41c-.47,0-.95-.06-1.47-.11s-1-.07-1.57-.07a9.16,9.16,0,0,0-3.31.57,2.35,2.35,0,0,0-1.48,2.47,2.31,2.31,0,0,0,1,2.16,4,4,0,0,0,2,.58,5,5,0,0,0,3.17-1.17A4.26,4.26,0,0,0,439.08,55.66Z"/>
        <path d="M455.18,45.19A4.27,4.27,0,0,1,458,46l.62,4.1-2.09.26-.62-2.78a3.61,3.61,0,0,0-1.24-.22,2.91,2.91,0,0,0-2.38,1.19,4.75,4.75,0,0,0-.95,3.09v8h3.77v2.09h-9.19V59.68h2.86V47.57h-2.93V45.48h5.34v2.93a5.39,5.39,0,0,1,1.56-2.29A3.67,3.67,0,0,1,455.18,45.19Z"/>
        <path d="M475.81,56.28a8.05,8.05,0,0,1-1.92,4,6.16,6.16,0,0,1-4.95,1.86A7,7,0,0,1,463.56,60a8.62,8.62,0,0,1-2-6.1,10.13,10.13,0,0,1,1.91-6,6.54,6.54,0,0,1,5.7-2.68,11.5,11.5,0,0,1,3,.37,7.36,7.36,0,0,1,2.6,1.32l.62,3.91-2.12.26-.63-2.75a6.48,6.48,0,0,0-3.47-.91,4,4,0,0,0-3.73,1.87,8.45,8.45,0,0,0-1.14,4.5,7.3,7.3,0,0,0,1.28,4.57,4.41,4.41,0,0,0,3.7,1.65q3.66,0,4.39-4.14Z"/>
        <path d="M497.22,61.77H489V59.68h2.85V52.11a5.17,5.17,0,0,0-1.08-3.72A3.72,3.72,0,0,0,488,47.31a4.52,4.52,0,0,0-3.46,1.45A4.9,4.9,0,0,0,483.1,52v7.68h2.81v2.09h-8.23V59.68h2.82v-21h-2.82V36.59h5.42V48.41a6,6,0,0,1,5.7-3.26,5.68,5.68,0,0,1,4,1.47c1.08,1,1.61,2.55,1.61,4.72v8.34h2.82Z"/>
        <path d="M170.06,98.36h-8.27V96.27h2.85V84.16h-2.93V82.08h5.49V96.27h2.86Zm-5.68-20.49V74.54h2.79v3.33Z"/>
        <path d="M191.43,98.36h-8.24V96.27H186V88.7A5.17,5.17,0,0,0,185,85a3.64,3.64,0,0,0-2.71-1.08,4.59,4.59,0,0,0-3.53,1.44,5.05,5.05,0,0,0-1.41,3.31v7.61h2.86v2.09h-8.27V96.27h2.85V84.16h-2.93V82.08h5.49V85A6,6,0,0,1,183,81.75a5.74,5.74,0,0,1,4,1.46q1.6,1.47,1.61,4.72v8.34h2.82Z"/>
        <path d="M210.27,98.36H201.6V96h3V76.92h-3V74.57h8.67v2.35h-3V96h3Z"/>
        <path d="M236.65,86.47a12.71,12.71,0,0,1-1.5,6.14,11.59,11.59,0,0,1-4.2,4.45,11.8,11.8,0,0,1-6.3,1.66,11,11,0,0,1-8.6-3.6,12.57,12.57,0,0,1-3.22-8.65,12.32,12.32,0,0,1,3.31-8.69,12.16,12.16,0,0,1,17.22,0A12.38,12.38,0,0,1,236.65,86.47Zm-2.89,0a10.34,10.34,0,0,0-2.45-7.08,8.32,8.32,0,0,0-6.58-2.8,8.14,8.14,0,0,0-6.63,2.86,10.52,10.52,0,0,0-2.38,7,10.71,10.71,0,0,0,2.38,6.95,9.08,9.08,0,0,0,13.28.09A10.45,10.45,0,0,0,233.76,86.5Z"/>
        <path d="M259.82,81.82l-2.38.18-.73-5.08h-6.15V96h4.21v2.34h-11V96h4.1V76.92h-6.15L241,82l-2.34-.18.69-7.25h19.72Z"/>
        <path d="M259.63,102.09l1.91-7.9h2.56l-1.94,7.9Z"/>
        <path d="M294.32,81.86a7.1,7.1,0,0,1-2.27,5.69,8.55,8.55,0,0,1-5.78,2h-4.65V96h4.1v2.34H276V96h3V76.92h-3V74.57h10.1q4.43,0,6.35,2.16A7.46,7.46,0,0,1,294.32,81.86Zm-2.85.07a4.91,4.91,0,0,0-1.36-3.66,5.86,5.86,0,0,0-4.28-1.35h-4.21V87.16h4.32Q291.48,87.16,291.47,81.93Z"/>
        <path d="M305.81,81.78a4.25,4.25,0,0,1,2.78.84l.62,4.1-2.08.26-.62-2.78a3.66,3.66,0,0,0-1.25-.22,3,3,0,0,0-2.38,1.19,4.81,4.81,0,0,0-.95,3.09v8h3.77v2.09h-9.18V96.27h2.85V84.16h-2.93V82.08h5.35V85a5.2,5.2,0,0,1,1.55-2.28A3.63,3.63,0,0,1,305.81,81.78Z"/>
        <path d="M328.2,90.2A8.76,8.76,0,0,1,326,96.31a7.65,7.65,0,0,1-6,2.41,7.38,7.38,0,0,1-5.79-2.34,8.65,8.65,0,0,1-2.11-6,9.41,9.41,0,0,1,2.05-6.1,8.39,8.39,0,0,1,12,0A9.25,9.25,0,0,1,328.2,90.2Zm-2.7,0a7,7,0,0,0-1.41-4.52,4.84,4.84,0,0,0-4-1.73,4.66,4.66,0,0,0-3.94,1.79,7.2,7.2,0,0,0-1.37,4.5,7.31,7.31,0,0,0,1.36,4.5,4.61,4.61,0,0,0,3.95,1.83,4.73,4.73,0,0,0,4-1.81A7.32,7.32,0,0,0,325.5,90.16Z"/>
        <path d="M349,84.16h-2.64v14a8.64,8.64,0,0,1-2.1,6.11,7.66,7.66,0,0,1-5.91,2.27,9,9,0,0,1-4.59-1.17,5.68,5.68,0,0,1-2.69-3.62l2.05-1a4.62,4.62,0,0,0,2.16,2.76,6.34,6.34,0,0,0,3.18.86,4.93,4.93,0,0,0,3.82-1.62A6.7,6.7,0,0,0,343.76,98V95a7.39,7.39,0,0,1-2.13,2.49,5.88,5.88,0,0,1-3.69,1.06,6.7,6.7,0,0,1-4.94-2A8,8,0,0,1,331,90.64a11.23,11.23,0,0,1,1.76-6.08,6,6,0,0,1,5.52-2.81,5.84,5.84,0,0,1,5.53,2.89V82.08H349Zm-5.23,7.17V88.52a4.26,4.26,0,0,0-1.41-3.32,5,5,0,0,0-3.42-1.26,4.31,4.31,0,0,0-4,2,8.42,8.42,0,0,0-1.23,4.54,6.35,6.35,0,0,0,1.37,4.46,4.44,4.44,0,0,0,3.39,1.46,4.77,4.77,0,0,0,3.77-1.61A5.46,5.46,0,0,0,343.76,91.33Z"/>
        <path d="M360,81.78a4.25,4.25,0,0,1,2.78.84l.63,4.1-2.09.26-.62-2.78a3.66,3.66,0,0,0-1.25-.22,2.92,2.92,0,0,0-2.37,1.19,4.76,4.76,0,0,0-1,3.09v8h3.77v2.09h-9.18V96.27h2.85V84.16h-2.92V82.08H356V85a5.2,5.2,0,0,1,1.55-2.28A3.65,3.65,0,0,1,360,81.78Z"/>
        <path d="M367.94,83.32a9.24,9.24,0,0,1,2.71-1.21,12.36,12.36,0,0,1,3-.36c3.88,0,5.82,1.81,5.82,5.45V95c0,1.17.46,1.75,1.39,1.75a2.5,2.5,0,0,0,1.09-.22l0,1.69a4.37,4.37,0,0,1-2.12.54c-1.93,0-2.92-1.09-3-3.29v-.07a7.6,7.6,0,0,1-2.17,2.34,5.63,5.63,0,0,1-3.39,1,6.36,6.36,0,0,1-3.27-1,3.83,3.83,0,0,1-1.67-3.59q0-3.08,2.44-4a13.74,13.74,0,0,1,5.17-1l1.49,0,1.4.11V87.82a5,5,0,0,0-.75-2.85c-.5-.73-1.48-1.1-2.94-1.1a7.09,7.09,0,0,0-3.15.66l-.62,2.82-2.12-.26Zm9,8.93V91c-.46,0-.95-.06-1.46-.11s-1-.07-1.57-.07a9.12,9.12,0,0,0-3.31.57,2.36,2.36,0,0,0-1.49,2.47,2.3,2.3,0,0,0,1,2.16,4,4,0,0,0,2,.58,5,5,0,0,0,3.17-1.17A4.25,4.25,0,0,0,376.94,92.25Z"/>
        <path d="M413.9,98.36h-7.79V96.27h2.38V88.7A5.22,5.22,0,0,0,407.44,85a3.52,3.52,0,0,0-2.65-1.08,4,4,0,0,0-3.44,1.68,5.8,5.8,0,0,0-1.24,3.22v7.46h2.81v2.09h-7.75V96.27h2.34V88.7c0-1.78-.34-3-1-3.73a3.44,3.44,0,0,0-2.59-1.06,4,4,0,0,0-3.46,1.62,6,6,0,0,0-1.27,3.21v7.53h3v2.09h-8.42V96.27h2.85V84.16h-2.89V82.08h5.45v3a7.15,7.15,0,0,1,2.16-2.41,5.56,5.56,0,0,1,3.3-1,5.72,5.72,0,0,1,3.31,1,4.82,4.82,0,0,1,1.92,3A6.9,6.9,0,0,1,402,82.84a5.71,5.71,0,0,1,3.56-1.09,5.48,5.48,0,0,1,3.9,1.46q1.56,1.47,1.56,4.72v8.34h2.85Z"/>
        <path d="M445.48,98.36h-7.79V96.27h2.37V88.7A5.22,5.22,0,0,0,439,85a3.52,3.52,0,0,0-2.65-1.08,4,4,0,0,0-3.44,1.68,5.73,5.73,0,0,0-1.24,3.22v7.46h2.81v2.09h-7.76V96.27h2.35V88.7a5.33,5.33,0,0,0-1-3.73,3.44,3.44,0,0,0-2.6-1.06A4,4,0,0,0,422,85.53a5.92,5.92,0,0,0-1.27,3.21v7.53h3v2.09h-8.41V96.27h2.85V84.16h-2.89V82.08h5.45v3a7.15,7.15,0,0,1,2.16-2.41,5.56,5.56,0,0,1,3.3-1,5.75,5.75,0,0,1,3.31,1,4.82,4.82,0,0,1,1.92,3,6.9,6.9,0,0,1,2.18-2.82,5.71,5.71,0,0,1,3.56-1.09,5.48,5.48,0,0,1,3.9,1.46q1.56,1.47,1.56,4.72v8.34h2.85Z"/>
        <path d="M455.32,98.36h-8.27V96.27h2.86V84.16H447V82.08h5.49V96.27h2.85Zm-5.67-20.49V74.54h2.78v3.33Z"/>
        <path d="M476.69,98.36h-8.23V96.27h2.82V88.7A5.22,5.22,0,0,0,470.22,85a3.64,3.64,0,0,0-2.71-1.08A4.58,4.58,0,0,0,464,85.35a5.05,5.05,0,0,0-1.41,3.31v7.61h2.85v2.09h-8.27V96.27H460V84.16h-2.93V82.08h5.49V85a6,6,0,0,1,5.71-3.22,5.76,5.76,0,0,1,4,1.46q1.61,1.47,1.6,4.72v8.34h2.82Z"/>
        <path d="M496.45,84.16h-2.63v14a8.6,8.6,0,0,1-2.11,6.11,7.66,7.66,0,0,1-5.91,2.27,9.06,9.06,0,0,1-4.59-1.17,5.71,5.71,0,0,1-2.69-3.62l2.05-1a4.69,4.69,0,0,0,2.16,2.76,6.36,6.36,0,0,0,3.18.86,5,5,0,0,0,3.83-1.62A6.7,6.7,0,0,0,491.22,98V95a7.47,7.47,0,0,1-2.12,2.49,5.93,5.93,0,0,1-3.7,1.06,6.72,6.72,0,0,1-4.94-2,8,8,0,0,1-2-5.89,11.31,11.31,0,0,1,1.76-6.08,6,6,0,0,1,5.52-2.81,5.84,5.84,0,0,1,5.53,2.89V82.08h5.23Zm-5.23,7.17V88.52a4.26,4.26,0,0,0-1.41-3.32,5,5,0,0,0-3.42-1.26,4.32,4.32,0,0,0-4,2,8.42,8.42,0,0,0-1.23,4.54,6.3,6.3,0,0,0,1.38,4.46A4.42,4.42,0,0,0,486,96.38a4.77,4.77,0,0,0,3.77-1.61A5.46,5.46,0,0,0,491.22,91.33Z"/>
        <path d="M497.37,102.09l1.9-7.9h2.56l-1.94,7.9Z"/>
        <path d="M163.51,119.91a8.8,8.8,0,0,1,2.7-1.2,12,12,0,0,1,3-.37q5.82,0,5.82,5.45v7.76c0,1.17.46,1.76,1.39,1.76a2.73,2.73,0,0,0,1.1-.22l0,1.68a4.32,4.32,0,0,1-2.12.55c-1.93,0-2.91-1.1-3-3.3V132a7.64,7.64,0,0,1-2.18,2.34,5.56,5.56,0,0,1-3.38,1,6.38,6.38,0,0,1-3.28-1,3.81,3.81,0,0,1-1.66-3.59c0-2.05.81-3.39,2.43-4a13.79,13.79,0,0,1,5.18-1c.49,0,1,0,1.48,0s1,.06,1.41.11v-1.47a5,5,0,0,0-.75-2.85c-.5-.73-1.48-1.1-2.95-1.1a7.08,7.08,0,0,0-3.14.66l-.63,2.82-2.12-.26Zm9,8.93V127.6c-.47,0-.95-.06-1.47-.11s-1-.08-1.57-.08a9.16,9.16,0,0,0-3.31.57,2.35,2.35,0,0,0-1.48,2.47,2.3,2.3,0,0,0,1,2.16,3.93,3.93,0,0,0,2,.58,5,5,0,0,0,3.17-1.17A4.26,4.26,0,0,0,172.51,128.84Z"/>
        <path d="M198.85,135h-8.23v-2.08h2.82v-7.58a5.24,5.24,0,0,0-1.06-3.71,3.64,3.64,0,0,0-2.71-1.08,4.59,4.59,0,0,0-3.53,1.44,5.07,5.07,0,0,0-1.41,3.31v7.62h2.85V135h-8.27v-2.08h2.86V120.75h-2.93v-2.08h5.49v2.89a6,6,0,0,1,5.71-3.22,5.76,5.76,0,0,1,4,1.46q1.6,1.47,1.61,4.72v8.35h2.81Z"/>
        <path d="M218.76,135h-5.38v-3.29a8.59,8.59,0,0,1-2.19,2.56,5.71,5.71,0,0,1-3.63,1.1,6.48,6.48,0,0,1-5.06-2.14,8.56,8.56,0,0,1-1.93-6,11.63,11.63,0,0,1,1.69-6.07q1.68-2.82,5.67-2.82a5.75,5.75,0,0,1,5.45,3v-9.44h-3.95v-2.08h6.51v23.09h2.82Zm-5.38-7.21v-2.59a4.49,4.49,0,0,0-1.5-3.33,4.85,4.85,0,0,0-3.37-1.29,4.38,4.38,0,0,0-4,2,8.27,8.27,0,0,0-1.26,4.54,6.52,6.52,0,0,0,1.41,4.54,4.6,4.6,0,0,0,3.53,1.53,4.49,4.49,0,0,0,3.64-1.77A6.09,6.09,0,0,0,213.38,127.74Z"/>
        <path d="M248.84,118.41l-2.38.18-.73-5.08h-6.15v19.1h4.21V135h-11v-2.34h4.1v-19.1h-6.15l-.73,5.08-2.34-.18.69-7.24h19.73Z"/>
        <path d="M263.18,130.27a5.76,5.76,0,0,1-2.08,3.57,7.19,7.19,0,0,1-4.76,1.48,7.44,7.44,0,0,1-5.56-2.16,8.33,8.33,0,0,1-2.12-6.11,9.54,9.54,0,0,1,2-6.26,6.69,6.69,0,0,1,5.45-2.45,6.28,6.28,0,0,1,5.12,2.12,7.84,7.84,0,0,1,1.8,5,9.31,9.31,0,0,1-.22,1.94H251.36q.22,5.72,5.16,5.71a4.6,4.6,0,0,0,3-.91,4.4,4.4,0,0,0,1.46-2.42Zm-2.85-4.76a5.27,5.27,0,0,0-.86-3.44,4.44,4.44,0,0,0-6.75-.11,7.64,7.64,0,0,0-1.32,3.55Z"/>
        <path d="M280.12,129.46a8,8,0,0,1-1.92,4q-1.59,1.88-5,1.87a7,7,0,0,1-5.37-2.18,8.59,8.59,0,0,1-2-6.09,10.14,10.14,0,0,1,1.91-6,6.53,6.53,0,0,1,5.7-2.67,11.08,11.08,0,0,1,3,.37A7.5,7.5,0,0,1,279,120l.62,3.92-2.12.25-.63-2.74a6.39,6.39,0,0,0-3.47-.92,4,4,0,0,0-3.73,1.87,8.48,8.48,0,0,0-1.14,4.5,7.28,7.28,0,0,0,1.28,4.57,4.41,4.41,0,0,0,3.7,1.65q3.66,0,4.39-4.13Z"/>
        <path d="M301.53,135h-8.27v-2.08h2.85v-7.58a5.19,5.19,0,0,0-1.07-3.71,3.76,3.76,0,0,0-2.77-1.08,4.51,4.51,0,0,0-3.46,1.44,5,5,0,0,0-1.4,3.24v7.69h2.81V135H282v-2.08h2.82v-21H282v-2.08h5.42v11.81a6,6,0,0,1,5.7-3.25,5.72,5.72,0,0,1,4,1.46c1.08,1,1.61,2.55,1.61,4.72v8.35h2.82Z"/>
        <path d="M322.5,135h-8.24v-2.08h2.82v-7.58a5.19,5.19,0,0,0-1.06-3.71,3.64,3.64,0,0,0-2.71-1.08,4.59,4.59,0,0,0-3.53,1.44,5.07,5.07,0,0,0-1.41,3.31v7.62h2.86V135H303v-2.08h2.85V120.75h-2.93v-2.08h5.49v2.89a6,6,0,0,1,5.71-3.22,5.72,5.72,0,0,1,4,1.46q1.6,1.47,1.61,4.72v8.35h2.82Z"/>
        <path d="M340.24,126.79a8.74,8.74,0,0,1-2.19,6.11,7.67,7.67,0,0,1-6,2.42,7.42,7.42,0,0,1-5.8-2.34,8.73,8.73,0,0,1-2.1-6,9.36,9.36,0,0,1,2.05-6.09,8.38,8.38,0,0,1,12,0A9.25,9.25,0,0,1,340.24,126.79Zm-2.7,0a6.91,6.91,0,0,0-1.41-4.51,4.83,4.83,0,0,0-4-1.74,4.69,4.69,0,0,0-3.94,1.79,7.24,7.24,0,0,0-1.37,4.5,7.37,7.37,0,0,0,1.35,4.5,4.62,4.62,0,0,0,4,1.83,4.73,4.73,0,0,0,4-1.81A7.3,7.3,0,0,0,337.54,126.75Z"/>
        <path d="M350.6,135h-8.27v-2.08h2.85v-21h-2.89v-2.08h5.45v23.09h2.86Z"/>
        <path d="M368.75,126.79a8.7,8.7,0,0,1-2.2,6.11,7.65,7.65,0,0,1-6,2.42,7.39,7.39,0,0,1-5.8-2.34,8.74,8.74,0,0,1-2.11-6,9.42,9.42,0,0,1,2.05-6.09,8.39,8.39,0,0,1,12,0A9.25,9.25,0,0,1,368.75,126.79Zm-2.71,0a6.91,6.91,0,0,0-1.41-4.51,4.82,4.82,0,0,0-4-1.74,4.65,4.65,0,0,0-3.93,1.79,7.17,7.17,0,0,0-1.37,4.5,7.37,7.37,0,0,0,1.35,4.5,4.61,4.61,0,0,0,4,1.83,4.73,4.73,0,0,0,4-1.81A7.24,7.24,0,0,0,366,126.75Z"/>
        <path d="M389.53,120.75H386.9v14a8.6,8.6,0,0,1-2.11,6.11,7.63,7.63,0,0,1-5.91,2.27,9,9,0,0,1-4.59-1.17,5.71,5.71,0,0,1-2.69-3.62l2-1a4.71,4.71,0,0,0,2.16,2.77,6.44,6.44,0,0,0,3.18.86,5,5,0,0,0,3.83-1.63,6.74,6.74,0,0,0,1.48-4.67v-3a7.47,7.47,0,0,1-2.12,2.49,5.93,5.93,0,0,1-3.7,1.06,6.72,6.72,0,0,1-4.94-2,8,8,0,0,1-2.05-5.89,11.25,11.25,0,0,1,1.76-6.07,6,6,0,0,1,5.52-2.82,5.84,5.84,0,0,1,5.53,2.89v-2.56h5.23Zm-5.23,7.18v-2.82a4.22,4.22,0,0,0-1.41-3.31,5,5,0,0,0-3.42-1.27,4.32,4.32,0,0,0-4,2,8.42,8.42,0,0,0-1.23,4.54,6.33,6.33,0,0,0,1.37,4.46A4.47,4.47,0,0,0,379,133a4.8,4.8,0,0,0,3.77-1.61A5.48,5.48,0,0,0,384.3,127.93Z"/>
        <path d="M408.52,120.75h-1.94L400.84,135l-2.2,5.71h2.78v2.09h-8.27v-2.09h3l2.12-5.75-5.93-14.16h-1.93v-2.08H398v2.08h-2.85l4.57,10.95h.22L404,120.75h-2.63v-2.08h7.17Z"/>
      </g>
    </g>
  </g>
</svg>
