<svg xmlns="http://www.w3.org/2000/svg" width="143.66" height="143.66" viewBox="0 0 143.66 143.66">
  <defs>
    <style>
      .cls-1 {
        fill: #fff;
      }
    </style>
  </defs>
  <title>script_icon</title>
  <g id="Layer_2" data-name="Layer 2">
    <g id="Layer_1-2" data-name="Layer 1">
      <circle cx="71.83" cy="71.83" r="71.83"/>
      <g>
        <g>
          <path class="cls-1" d="M56.9,64.93a.72.72,0,0,0-.65-.73.68.68,0,0,0-.62.72.64.64,0,1,0,1.27,0Z"/>
          <path class="cls-1" d="M47.64,62.42h3.72a.5.5,0,0,0,.43-.19c1.13-1.32,2.28-2.62,3.41-3.94a.64.64,0,0,1,.52-.24h2.85a.3.3,0,0,0,.31-.22,1.47,1.47,0,0,1,1.82-1,1.77,1.77,0,0,1,1.11,1.89,1.67,1.67,0,0,1-1.44,1.57,1.53,1.53,0,0,1-1.49-1c-.07-.18-.15-.24-.32-.24H56a.46.46,0,0,0-.37.19c-1.11,1.28-2.22,2.55-3.32,3.84a.83.83,0,0,1-.68.33c-2.46,0-4.92,0-7.39,0,0,.32,0,.64.05,1H54.52c.18,0,.27-.07.36-.26a1.43,1.43,0,0,1,1.49-1,1.47,1.47,0,0,1,1.33,1.13,1.86,1.86,0,0,1-.36,1.88.86.86,0,0,0-.14.2c.34,0,.7.13,1-.1l4.93-3.44a.31.31,0,0,0,.15-.37,1.73,1.73,0,0,1,1.28-2,1.57,1.57,0,0,1,1.76,1.43,1.77,1.77,0,0,1-1.2,2A1.31,1.31,0,0,1,64,63.72c-.14-.11-.23-.08-.36,0l-5,3.5a1.19,1.19,0,0,1-.69.23H44.87a12.21,12.21,0,0,0,.47,1.24H64.63a.36.36,0,0,0,.4-.27,1.46,1.46,0,0,1,1.73-.94,1.67,1.67,0,0,1,1.14,1.27h4.23a18.46,18.46,0,0,0,0-8.81c-1.14-4.8-5-10.35-14-10.35a13.67,13.67,0,0,0-13.9,12.83Z"/>
          <path class="cls-1" d="M55.3,66.41c-.17-.31-.32-.58-.49-.85a.25.25,0,0,0-.14-.11H44.39c0,.33.11.65.19,1H55.3Z"/>
          <path class="cls-1" d="M56.42,72.9a.8.8,0,0,1,.54.21l5.65,4.81a.58.58,0,0,0,.35.13h9.88A12.32,12.32,0,0,0,72,75.37H65a.77.77,0,0,1-.62-.28C63.5,74,62.58,73,61.68,72a.55.55,0,0,0-.45-.21H47.35a12,12,0,0,0,1.21,1.15h7.86Z"/>
          <path class="cls-1" d="M66.39,69.93a.61.61,0,0,0,.5-.27c-.35-.2-.72-.39-1.1-.58a.28.28,0,0,0,0,.09A.7.7,0,0,0,66.39,69.93Z"/>
          <path class="cls-1" d="M64.61,69.71H45.87c.2.34.42.68.65,1h6.23c2.92,0,5.85,0,8.77,0a.72.72,0,0,1,.6.27c.89,1,1.8,2.05,2.69,3.08a.59.59,0,0,0,.5.25h6.2a12.35,12.35,0,0,0-3.82-4.15,1.58,1.58,0,0,1-.92.75A1.46,1.46,0,0,1,65,70,.39.39,0,0,0,64.61,69.71Z"/>
          <path class="cls-1" d="M66.42,68.48a.59.59,0,0,0-.51.27h1A.6.6,0,0,0,66.42,68.48Z"/>
          <path class="cls-1" d="M66.21,85.64a.68.68,0,0,0-.62-.72.72.72,0,1,0,.62.72Z"/>
          <path class="cls-1" d="M65.48,62.23a.71.71,0,0,0-.66-.72.7.7,0,0,0-.62.75.68.68,0,0,0,.64.7A.69.69,0,0,0,65.48,62.23Z"/>
          <path class="cls-1" d="M69.32,82.59a.67.67,0,0,0-.63-.73.68.68,0,0,0-.62.72.66.66,0,0,0,.62.71A.65.65,0,0,0,69.32,82.59Z"/>
          <path class="cls-1" d="M57.45,78.68a.63.63,0,1,0-1.25,0,.63.63,0,1,0,1.25,0Z"/>
          <path class="cls-1" d="M62.84,79.1a1,1,0,0,1-.72-.28l-5.5-4.69a.65.65,0,0,0-.47-.18h-13c0,.23-.11.59-.18,1.06H53.29a.7.7,0,0,1,.51.21l2,1.89a.19.19,0,0,0,.27,0,1.39,1.39,0,0,1,1.82.27,2,2,0,0,1,.32,2,1.53,1.53,0,0,1-1.58,1A1.64,1.64,0,0,1,55.31,79a3.08,3.08,0,0,1,0-.74.28.28,0,0,0-.08-.28c-.64-.6-1.27-1.2-1.92-1.79a.54.54,0,0,0-.35-.11H42.81c0,.27-.05.57-.07.87h1.5c1.92,0,3.85,0,5.77,0a.79.79,0,0,1,.54.2c1.87,1.61,3.74,3.2,5.62,4.79a.59.59,0,0,0,.37.14H67a.3.3,0,0,0,.33-.23,1.49,1.49,0,0,1,1.78-1,1.75,1.75,0,0,1,1.16,1.76A1.72,1.72,0,0,1,69,84.3a1.48,1.48,0,0,1-1.75-1,.28.28,0,0,0-.32-.2H56.37a.93.93,0,0,1-.61-.23q-2.8-2.41-5.63-4.81c-.21-.18-.41-.07-.63-.09a1.9,1.9,0,0,1,.12,3.28,1.46,1.46,0,0,1-2-.82.36.36,0,0,0-.38-.26h-4.4l0,.34c0,.21,0,.42.08.64s.05.36.08.55h4.63c1.23,0,2.46,0,3.69,0a.79.79,0,0,1,.52.18q1.92,1.55,3.86,3.06a.56.56,0,0,0,.35.13h7.84a.29.29,0,0,0,.31-.21,1.5,1.5,0,0,1,1.74-1,1.77,1.77,0,0,1,1.21,1.73A1.74,1.74,0,0,1,66,87.35a1.47,1.47,0,0,1-1.76-.95.33.33,0,0,0-.36-.25H55.89a.94.94,0,0,1-.61-.22l-3.82-3a.7.7,0,0,0-.39-.13H43.19a13.21,13.21,0,0,0,4.3,7.29l0,0a16,16,0,0,0,11.2,4c9.27,0,14.37-6.8,14.37-13.48a14.76,14.76,0,0,0-.08-1.5Z"/>
          <path class="cls-1" d="M60.91,58.56a.64.64,0,1,0-1.27,0,.68.68,0,0,0,.64.73A.7.7,0,0,0,60.91,58.56Z"/>
          <path class="cls-1" d="M47.92,78H42.7c0,.37,0,.76,0,1.16h4.54a.26.26,0,0,0,.28-.2,1.82,1.82,0,0,1,.85-1h-.47Z"/>
          <path class="cls-1" d="M49,80.37a.72.72,0,1,0-.63-.7A.66.66,0,0,0,49,80.37Z"/>
        </g>
        <path class="cls-1" d="M9.32,67.57l29.78-18V60.67l-19.54,11L39.1,82.83V94.07L9.32,76.25Z"/>
        <path class="cls-1" d="M134.33,76.17l-29.77,17.9v-11L124.09,72,104.56,60.83V49.59l29.77,17.9Z"/>
        <path class="cls-1" d="M84.34,93.41h-9L93.05,49.59h9.07Z"/>
      </g>
    </g>
  </g>
</svg>
